<?xml version="1.0" encoding="UTF-8"?>
<svg xmlns="http://www.w3.org/2000/svg" width="20" height="20" viewBox="0 0 48 48" role="img" aria-label="Google">
  <title>Google</title>
  <defs>
    <linearGradient id="g" x1="0%" x2="100%" y1="0%" y2="100%">
      <stop offset="0%" stop-color="#34A853" />
      <stop offset="100%" stop-color="#4285F4" />
    </linearGradient>
  </defs>
  <path fill="#4285F4" d="M43.6 20.3H42V20H24v8h11.3c-1.2 3.6-4.4 6.3-8.3 6.9v5.7h6.8C39.7 39 46 31 46 24c0-1.6-.2-3.2-.4-3.7z"/>
  <path fill="#34A853" d="M24 44c5.9 0 10.9-2 14.5-5.5l-6.8-5.7C29.7 33.7 27 34.8 24 34.8c-6 0-11-4.1-12.8-9.7H4.1v6.1C7.7 39.6 15.2 44 24 44z"/>
  <path fill="#FBBC05" d="M11.2 27.1A14.5 14.5 0 0 1 10 24c0-1 .2-2 .5-2.9V15.1H4.1A23.9 23.9 0 0 0 0 24c0 2.9.6 5.7 1.7 8.2l9.5-5.1z"/>
  <path fill="#EA4335" d="M24 12.2c3.2 0 6.1 1.1 8.3 3.2l6.2-6.2C35 5 29.9 3 24 3 15.2 3 7.7 7.4 4.1 15.1l9.5 6.2C13 16.4 18 12.2 24 12.2z"/>
  <path fill="none" d="M0 0h48v48H0z"/>
</svg>
